<svg xmlns="http://www.w3.org/2000/svg" viewBox="90 -25 320 320" width="100%" height="100%">
  <style>
    .brace { stroke: #0f172a; }
    .box-stroke { stroke: #0f172a; }
    .box-fill { fill: #ffffff; }
    .code-text { fill: #0f172a; }
    @media (prefers-color-scheme: dark) {
      .brace { stroke: #f8fafc; }
      .box-stroke { stroke: #f8fafc; }
      .box-fill { fill: #0f172a; }
      .code-text { fill: #f8fafc; }
    }
  </style>
  <!-- Left Brace -->
  <path class="brace" d="M 135 50 C 115 50 115 60 115 80 L 115 105 C 115 115 110 120 100 120 C 110 120 115 125 115 135 L 115 160 C 115 180 115 190 135 190" fill="none" stroke-width="10" stroke-linecap="round" stroke-linejoin="round" />
  
  <!-- Right Brace -->
  <path class="brace" d="M 365 50 C 385 50 385 60 385 80 L 385 105 C 385 115 390 120 400 120 C 390 120 385 125 385 135 L 385 160 C 385 180 385 190 365 190" fill="none" stroke-width="10" stroke-linecap="round" stroke-linejoin="round" />

  <!-- Left Person (Blue) -->
  <circle cx="195" cy="70" r="22" fill="#3b82f6" />
  <rect x="160" y="105" width="70" height="85" rx="35" fill="#3b82f6" />

  <!-- Right Person (Green) -->
  <circle cx="305" cy="70" r="22" fill="#10b981" />
  <rect x="270" y="105" width="70" height="85" rx="35" fill="#10b981" />

  <!-- Code Box -->
  <rect class="box-fill box-stroke" x="180" y="125" width="140" height="70" rx="10" stroke-width="8" stroke-linejoin="round" />
  <text class="code-text" x="250" y="174" font-family="'JetBrains Mono', 'Courier New', monospace" font-weight="900" font-size="34" text-anchor="middle">&lt;/&gt;</text>
</svg>